<svg role="img" viewBox="0 0 240 24" xmlns="http://www.w3.org/2000/svg"><title>59 Fifty</title><path fill="currentColor" d="M3.6 19.2V4.8h16.8v3.6H7.8v2.4h6v3.6h-6v4.8H3.6zm22.5.24c-1.92 0-3.48-.48-4.68-1.44l1.68-3.12c.96.72 1.92 1.08 2.88 1.08.84 0 1.44-.24 1.8-.72-.36-.6-1.08-.84-2.16-.84h-1.56v-2.88l2.28-2.16h-4.68V5.04h10.32v2.88l-3.12 2.88c1.92.36 3.24 1.56 3.24 3.72 0 2.88-2.4 4.92-6 4.92zm12.18 0c-3.6 0-6-2.04-6-4.92 0-2.16 1.32-3.36 3.24-3.72L32.4 7.92V5.04h10.32v2.88h-4.68l2.28 2.16v2.88h-1.56c-1.08 0-1.8.24-2.16.84.36.48.96.72 1.8.72.96 0 1.92-.36 2.88-1.08l1.68 3.12c-1.2.96-2.76 1.44-4.68 1.44zm22.62-.24V9.36l-2.64 2.16-2.16-2.76 5.76-4.08h3.36v14.52h-4.32zm11.7-3.84c-2.16 0-3.36-1.08-3.36-2.76 0-1.2.6-2.04 1.8-2.64-1.08-.6-1.56-1.44-1.56-2.52 0-1.68 1.32-2.76 3.36-2.76s3.36 1.08 3.36 2.76c0 1.08-.48 1.92-1.56 2.52 1.2.6 1.8 1.44 1.8 2.64 0 1.68-1.2 2.76-3.84 2.76zm-.84-3.12c0 .48.36.84.84.84s.84-.36.84-.84-.36-.84-.84-.84-.84.36-.84.84zm.12-4.2c0 .36.24.6.72.6s.72-.24.72-.6-.24-.6-.72-.6-.72.24-.72.6zm10.5 8.16V9.36l-2.64 2.16-2.16-2.76 5.76-4.08h3.36v14.52h-4.32zm11.34-3.84c-2.64 0-4.32-1.44-4.32-3.72 0-1.32.84-2.4 2.16-3.12-1.08-.6-1.68-1.44-1.68-2.52 0-2.04 1.8-3.36 4.32-3.36 1.92 0 3.48.6 4.44 1.68l-1.92 2.4c-.6-.6-1.32-.96-2.16-.96-.96 0-1.56.36-1.56.96 0 .6.48.96 1.44.96h1.92v2.76h-1.92c-1.2 0-1.8.36-1.8.96 0 .72.6 1.08 1.68 1.08 1.08 0 1.92-.36 2.64-1.08l1.92 2.4c-1.08 1.32-2.88 2.16-5.16 2.16zm15.48 4.08c-3.6 0-6-2.04-6-4.92 0-2.16 1.32-3.36 3.24-3.72L103.32 7.92V5.04h10.32v2.88h-4.68l2.28 2.16v2.88h-1.56c-1.08 0-1.8.24-2.16.84.36.48.96.72 1.8.72.96 0 1.92-.36 2.88-1.08l1.68 3.12c-1.2.96-2.76 1.44-4.68 1.44zm14.04-.24V14.4h-1.2l-2.64-2.64v7.44h-4.2V5.04h4.2v3.6l3.24-3.6h4.92l-4.56 4.8 4.68 6h-4.44zm10.38 0c-2.64 0-4.32-1.44-4.32-3.72 0-1.32.84-2.4 2.16-3.12-1.08-.6-1.68-1.44-1.68-2.52 0-2.04 1.8-3.36 4.32-3.36 1.92 0 3.48.6 4.44 1.68l-1.92 2.4c-.6-.6-1.32-.96-2.16-.96-.96 0-1.56.36-1.56.96 0 .6.48.96 1.44.96h1.92v2.76h-1.92c-1.2 0-1.8.36-1.8.96 0 .72.6 1.08 1.68 1.08 1.08 0 1.92-.36 2.64-1.08l1.92 2.4c-1.08 1.32-2.88 2.16-5.16 2.16zm12.96 0c-2.64 0-4.32-1.44-4.32-3.72 0-1.32.84-2.4 2.16-3.12-1.08-.6-1.68-1.44-1.68-2.52 0-2.04 1.8-3.36 4.32-3.36 1.92 0 3.48.6 4.44 1.68l-1.92 2.4c-.6-.6-1.32-.96-2.16-.96-.96 0-1.56.36-1.56.96 0 .6.48.96 1.44.96h1.92v2.76h-1.92c-1.2 0-1.8.36-1.8.96 0 .72.6 1.08 1.68 1.08 1.08 0 1.92-.36 2.64-1.08l1.92 2.4c-1.08 1.32-2.88 2.16-5.16 2.16zm15.12-.24v-3.6h-2.88l-3.36-10.92h4.44l1.8 7.2 1.8-7.2h4.44l-3.36 10.92h-2.88v3.6zm11.16.24c-3.24 0-5.64-2.16-5.64-5.16V12c0-2.88 2.4-5.16 5.52-5.16 3.6 0 5.4 2.16 5.4 5.4v1.2h-6.96c.24 1.2.96 1.8 2.16 1.8.96 0 1.56-.36 2.28-1.08l2.28 1.92c-.96 1.32-2.52 2.16-5.04 2.16zm-1.68-6.12h3.12c-.12-1.08-.6-1.68-1.56-1.68s-1.44.6-1.56 1.68zm11.52 5.88V12c0-3 2.4-5.16 5.64-5.16 2.04 0 3.6.72 4.56 1.92l-2.4 2.4c-.48-.6-1.08-.96-1.92-.96-1.32 0-2.16.84-2.16 1.92V12c0 1.08.84 1.92 2.16 1.92.96 0 1.56-.36 2.04-1.08l2.4 2.28c-1.08 1.32-2.64 2.16-4.68 2.16-3.24 0-5.64-2.16-5.64-5.16z"/></svg>