<?xml version="1.0" standalone="no"?>
<!DOCTYPE svg PUBLIC "-//W3C//DTD SVG 20010904//EN"
 "http://www.w3.org/TR/2001/REC-SVG-20010904/DTD/svg10.dtd">
<svg version="1.0" xmlns="http://www.w3.org/2000/svg"
 width="460.000000pt" height="60.000000pt" viewBox="0 0 460.000000 60.000000"
 preserveAspectRatio="xMidYMid meet">

<g transform="translate(0.000000,60.000000) scale(0.100000,-0.100000)"
fill="#000000" stroke="none">
<path d="M0 381 c0 -131 4 -221 12 -242 29 -87 91 -128 192 -129 83 0 138 28
174 88 27 47 27 48 30 270 l4 222 -46 0 -46 0 0 -199 c0 -110 -4 -211 -9 -224
-18 -46 -50 -67 -104 -67 -108 0 -117 22 -117 285 l0 205 -45 0 -45 0 0 -209z"/>
<path d="M540 301 l0 -291 45 0 45 0 2 200 3 199 126 -197 126 -197 42 -3 41
-3 0 290 0 291 -45 0 -45 0 -2 -201 -3 -201 -125 198 -126 199 -42 3 -42 3 0
-290z"/>
<path d="M1120 300 l0 -290 108 0 c131 0 195 17 239 62 47 49 53 75 53 228 0
153 -6 179 -53 228 -44 45 -108 62 -239 62 l-108 0 0 -290z m259 186 c42 -22
51 -55 51 -186 0 -71 -5 -130 -12 -145 -18 -39 -57 -55 -138 -55 l-70 0 0 200
0 200 70 0 c42 0 82 -6 99 -14z"/>
<path d="M1655 577 c-3 -7 -4 -136 -3 -287 l3 -275 188 -3 187 -2 0 45 0 45
-145 0 -145 0 0 75 0 74 123 3 122 3 3 43 3 42 -125 0 -126 0 0 80 0 80 145 0
145 0 0 45 0 45 -185 0 c-140 0 -187 -3 -190 -13z"/>
<path d="M2150 300 l0 -290 45 0 45 0 0 120 0 120 55 0 55 0 60 -120 60 -120
50 0 c28 0 50 3 50 7 0 3 -27 58 -60 120 -33 63 -60 118 -60 121 0 4 14 15 30
24 36 20 69 87 70 138 0 58 -38 122 -90 148 -39 19 -59 22 -177 22 l-133 0 0
-290z m280 180 c24 -24 27 -86 4 -118 -14 -20 -23 -22 -105 -22 l-89 0 0 80 0
80 85 0 c72 0 88 -3 105 -20z"/>
<path d="M2775 574 c-88 -46 -115 -110 -115 -278 0 -132 10 -174 53 -223 40
-46 82 -63 152 -63 70 0 112 17 152 63 40 45 53 91 53 185 l0 73 -102 -3 -103
-3 0 -40 0 -40 58 -3 c54 -3 57 -4 57 -28 0 -39 -28 -89 -57 -105 -44 -24
-101 -16 -137 20 l-31 31 0 134 c0 152 10 179 77 204 49 19 101 -3 125 -52 15
-33 20 -36 60 -36 38 0 43 3 43 23 0 41 -54 112 -102 136 -53 25 -139 28 -183
5z"/>
<path d="M3295 576 c-41 -18 -92 -77 -104 -123 -6 -21 -11 -90 -11 -153 0
-136 10 -178 53 -227 40 -46 82 -63 152 -63 96 0 159 43 190 129 21 60 21 262
0 322 -19 52 -58 96 -102 115 -41 18 -138 17 -178 0z m154 -92 c38 -27 51 -74
51 -184 0 -149 -29 -200 -115 -200 -86 0 -115 51 -115 200 0 149 29 200 115
200 22 0 51 -7 64 -16z"/>
<path d="M3720 300 l0 -290 185 0 185 0 0 45 0 45 -140 0 -140 0 0 245 0 245
-45 0 -45 0 0 -290z"/>
<path d="M4195 577 c-3 -7 -4 -136 -3 -287 l3 -275 100 -3 c134 -5 195 10 244
56 23 22 43 53 50 77 14 52 14 258 0 310 -15 54 -74 109 -132 124 -64 16 -256
15 -262 -2z m249 -87 c51 -19 66 -63 66 -190 0 -169 -24 -200 -156 -200 l-64
0 0 200 0 200 64 0 c36 0 76 -4 90 -10z"/>
</g>
</svg>
