<?xml version="1.0" standalone="no"?>
<!DOCTYPE svg PUBLIC "-//W3C//DTD SVG 20010904//EN"
 "http://www.w3.org/TR/2001/REC-SVG-20010904/DTD/svg10.dtd">
<svg version="1.0" xmlns="http://www.w3.org/2000/svg"
 width="400.000000pt" height="203.000000pt" viewBox="0 0 400.000000 203.000000"
 preserveAspectRatio="xMidYMid meet">

<g transform="translate(0.000000,203.000000) scale(0.100000,-0.100000)"
fill="#000000" stroke="none">
<path d="M0 979 l0 -411 233 5 c253 4 288 11 343 59 53 46 75 99 76 174 0 78
-23 127 -80 169 -22 17 -41 32 -41 35 -1 3 12 12 28 22 84 47 101 178 34 266
-54 71 -149 92 -430 92 l-163 0 0 -411z m429 227 c32 -29 29 -88 -5 -115 -23
-18 -41 -21 -135 -21 l-109 0 0 81 0 81 114 -4 c95 -2 117 -6 135 -22z m12
-314 c30 -34 36 -63 19 -106 -16 -43 -57 -56 -175 -56 l-105 0 0 101 0 102
116 -5 c117 -4 117 -4 145 -36z"/>
<path d="M697 1383 c-4 -3 -7 -188 -7 -410 l0 -403 85 0 85 0 0 410 0 410 -78
0 c-43 0 -82 -3 -85 -7z"/>
<path d="M2510 1073 c0 -186 4 -323 11 -346 6 -21 26 -56 45 -77 110 -122 398
-126 522 -7 65 62 66 69 70 420 l3 317 -95 0 -96 0 0 -298 c0 -259 -2 -301
-16 -321 -35 -49 -134 -66 -200 -35 -62 30 -64 41 -64 364 l0 290 -90 0 -90 0
0 -307z"/>
<path d="M1131 1170 c-95 -20 -186 -101 -217 -193 -26 -77 -16 -197 21 -265
52 -96 129 -143 246 -150 142 -8 247 47 307 162 23 44 26 63 27 142 0 81 -3
96 -30 149 -33 65 -101 125 -163 143 -56 17 -142 22 -191 12z m155 -155 c36
-23 56 -79 56 -151 1 -112 -44 -164 -139 -164 -60 0 -89 19 -114 74 -43 95
-10 223 66 257 29 13 101 4 131 -16z"/>
<path d="M3535 1175 c-5 -2 -22 -6 -37 -9 -15 -4 -43 -20 -63 -37 l-35 -31 0
31 0 31 -85 0 -85 0 0 -385 0 -385 90 0 90 0 0 109 0 108 48 -24 c39 -21 58
-24 118 -21 103 5 157 40 204 132 34 66 35 73 35 175 0 86 -4 115 -21 151 -29
63 -67 105 -117 128 -40 19 -121 34 -142 27z m55 -164 c77 -54 82 -224 9 -285
-39 -33 -104 -36 -142 -6 -39 31 -61 99 -54 172 6 70 27 104 78 131 38 19 70
16 109 -12z"/>
<path d="M1480 1151 c0 -4 29 -104 64 -222 35 -118 74 -247 86 -287 l21 -73
81 3 81 3 27 115 c15 63 36 151 46 195 l17 80 19 -75 c10 -41 32 -130 49 -197
l32 -123 83 0 83 0 12 43 c6 23 42 151 80 285 38 133 69 247 69 253 0 6 -32 9
-87 7 l-87 -3 -27 -110 c-16 -60 -33 -140 -40 -178 -7 -37 -14 -66 -16 -64 -2
2 -17 60 -34 128 -16 68 -37 148 -45 177 l-16 53 -76 -3 -77 -3 -38 -165 c-46
-194 -49 -204 -54 -170 -6 36 -51 226 -68 288 l-16 52 -84 0 c-47 0 -85 -4
-85 -9z"/>
<path d="M3885 689 c-33 -19 -45 -41 -45 -80 0 -83 115 -108 149 -32 16 36 13
59 -11 87 -27 30 -65 40 -93 25z m75 -29 c41 -41 15 -110 -42 -110 -32 0 -68
31 -68 59 0 29 39 71 66 71 13 0 33 -9 44 -20z"/>
<path d="M3880 615 c0 -25 5 -45 10 -45 6 0 10 7 10 15 0 8 7 15 15 15 8 0 15
-7 15 -15 0 -30 18 -14 22 19 5 49 0 56 -38 56 -34 0 -34 0 -34 -45z m55 15
c-3 -5 -13 -10 -21 -10 -8 0 -14 5 -14 10 0 6 9 10 21 10 11 0 17 -4 14 -10z"/>
</g>
</svg>
