<?xml version="1.0" encoding="UTF-8" standalone="no"?>
<!-- Created with Inkscape (http://www.inkscape.org/) -->

<svg
   xmlns:dc="http://purl.org/dc/elements/1.1/"
   xmlns:cc="http://creativecommons.org/ns#"
   xmlns:rdf="http://www.w3.org/1999/02/22-rdf-syntax-ns#"
   xmlns:svg="http://www.w3.org/2000/svg"
   xmlns="http://www.w3.org/2000/svg"
   xmlns:sodipodi="http://sodipodi.sourceforge.net/DTD/sodipodi-0.dtd"
   xmlns:inkscape="http://www.inkscape.org/namespaces/inkscape"
   width="120.96027"
   height="44.095989"
   viewBox="0 0 32.004072 11.667063"
   version="1.1"
   id="svg18012"
   inkscape:version="0.92.0 r15299"
   sodipodi:docname="new era field.svg">
  <defs
     id="defs18006">
    <clipPath
       id="clipPath16811"
       clipPathUnits="userSpaceOnUse">
      <path
         inkscape:connector-curvature="0"
         id="path16809"
         d="m 223.8,85.1 h 89.969 v 32.321 H 223.8 Z" />
    </clipPath>
    <clipPath
       id="clipPath16795"
       clipPathUnits="userSpaceOnUse">
      <path
         inkscape:connector-curvature="0"
         id="path16793"
         d="m 223.8,85.1 h 89.969 v 32.321 H 223.8 Z" />
    </clipPath>
  </defs>
  <sodipodi:namedview
     id="base"
     pagecolor="#ffffff"
     bordercolor="#666666"
     borderopacity="1.0"
     inkscape:pageopacity="0.0"
     inkscape:pageshadow="2"
     inkscape:zoom="7.4775758"
     inkscape:cx="59.979332"
     inkscape:cy="21.547326"
     inkscape:document-units="mm"
     inkscape:current-layer="layer1"
     showgrid="false"
     fit-margin-top="0"
     fit-margin-left="0"
     fit-margin-right="0"
     fit-margin-bottom="0"
     units="px"
     inkscape:window-width="1280"
     inkscape:window-height="744"
     inkscape:window-x="-4"
     inkscape:window-y="-4"
     inkscape:window-maximized="1" />
  <metadata
     id="metadata18009">
    <rdf:RDF>
      <cc:Work
         rdf:about="">
        <dc:format>image/svg+xml</dc:format>
        <dc:type
           rdf:resource="http://purl.org/dc/dcmitype/StillImage" />
        <dc:title></dc:title>
      </cc:Work>
    </rdf:RDF>
  </metadata>
  <g
     inkscape:label="Layer 1"
     inkscape:groupmode="layer"
     id="layer1"
     transform="translate(-94.519761,-181.41588)">
    <g
       id="g18153"
       transform="translate(0.13229171,-0.1322885)">
      <path
         d="m 126.00384,192.40427 c 0.13758,0 0.25541,0.10654 0.25541,0.25118 0,0.14675 -0.11783,0.25329 -0.25541,0.25329 -0.13899,0 -0.25647,-0.10654 -0.25647,-0.25329 0,-0.14464 0.11748,-0.25118 0.25647,-0.25118 m 0,0.0406 c -0.11747,0 -0.20743,0.0903 -0.20743,0.21061 0,0.12347 0.09,0.21308 0.20743,0.21308 0.11571,0 0.20637,-0.0896 0.20637,-0.21308 0,-0.1203 -0.0907,-0.21061 -0.20637,-0.21061 m -0.0536,0.35736 h -0.0448 v -0.29139 h 0.11147 c 0.0688,0 0.10372,0.0258 0.10372,0.0836 0,0.0519 -0.0332,0.0744 -0.0765,0.0801 l 0.0829,0.1277 h -0.0487 l -0.078,-0.12664 h -0.0501 z m 0,-0.16333 h 0.0533 c 0.0543,0 0.0716,-0.0155 0.0716,-0.048 0,-0.0275 -0.0134,-0.043 -0.0646,-0.043 h -0.0603 z"
         style="fill:#231f20;fill-opacity:1;fill-rule:nonzero;stroke:none;stroke-width:0.35277778"
         id="path16799"
         inkscape:connector-curvature="0" />

      <path
         d="m 106.61605,187.98813 v 3.65301 h 0.88759 v -1.91558 h 2.37208 v -0.78881 h -2.37208 v -0.94862 c 0,-0.0649 0.0515,-0.11889 0.11642,-0.11889 h 2.47261 v -0.79128 h -2.5915 v 0.002 c -0.49142,0.013 -0.88512,0.41593 -0.88512,0.90805"
         style="fill:#12100e;fill-opacity:1;fill-rule:evenodd;stroke:none;stroke-width:0.35277778"
         id="path16815"
         inkscape:connector-curvature="0" />
      <path
         inkscape:connector-curvature="0"
         id="path16817"
         style="fill:#12100e;fill-opacity:1;fill-rule:evenodd;stroke:none;stroke-width:0.35277778"
         d="m 110.67557,187.07584 h 1.0026 v 4.55507 h -1.0026 z" />
      <path
         d="m 112.2019,187.98813 v 2.72521 c 0,0.49424 0.39405,0.89288 0.88512,0.90699 h 2.5915 v -0.78811 h -2.47226 c -0.0653,0 -0.11642,-0.0547 -0.11642,-0.11888 v -0.98778 h 2.37173 v -0.78881 h -2.37173 v -0.94862 c 0,-0.0649 0.0512,-0.11889 0.11642,-0.11889 h 2.47226 v -0.79128 h -2.5915 v 0.002 c -0.49107,0.013 -0.88512,0.41593 -0.88512,0.90805"
         style="fill:#12100e;fill-opacity:1;fill-rule:evenodd;stroke:none;stroke-width:0.35277778"
         id="path16821"
         inkscape:connector-curvature="0" />
      <path
         d="m 116.09456,190.73122 v -3.65337 h 0.88759 v 3.65337 c 0,0.0649 0.0511,0.11853 0.11642,0.11853 h 2.47261 v 0.79164 h -2.59185 v -0.002 c -0.49107,-0.0131 -0.88477,-0.41593 -0.88477,-0.90805"
         style="fill:#12100e;fill-opacity:1;fill-rule:evenodd;stroke:none;stroke-width:0.35277778"
         id="path16825"
         inkscape:connector-curvature="0" />
      <path
         d="m 122.09157,187.07577 c 1.46579,0 2.14418,0.74859 2.14418,2.36008 0,0.8248 -0.22824,1.42099 -0.69779,1.79529 -0.44415,0.35525 -0.86889,0.3997 -1.42099,0.3997 h -2.11243 v -4.55507 z m -1.12924,0.7934 v 2.96862 h 1.11019 c 0.85019,0 1.11689,-0.3616 1.11689,-1.48449 0,-1.11654 -0.2667,-1.48413 -1.11689,-1.48413 z"
         style="fill:#12100e;fill-opacity:1;fill-rule:evenodd;stroke:none;stroke-width:0.35277778"
         id="path16829"
         inkscape:connector-curvature="0" />
      <path
         d="m 121.56815,183.66434 v 2.42076 h 0.59055 v -2.42076 c 0,-0.0434 0.0363,-0.079 0.0797,-0.079 h 1.19591 c 0.0434,0 0.0783,0.0356 0.0783,0.079 v 0.63218 h -0.95744 c -0.0448,0 -0.0833,0.0272 -0.0998,0.0656 l -0.20144,0.46003 h 1.25871 v 1.26294 h 0.59161 v -2.42076 c 0,-0.32914 -0.26211,-0.59619 -0.58985,-0.60501 v -0.001 h -1.35643 v 0.001 c -0.32667,0.009 -0.58984,0.27587 -0.58984,0.60501"
         style="fill:#12100e;fill-opacity:1;fill-rule:evenodd;stroke:none;stroke-width:0.35277778"
         id="path16833"
         inkscape:connector-curvature="0" />
      <path
         d="m 118.6232,183.66434 v 2.42076 h 0.59161 v -2.42076 c 0,-0.0434 0.036,-0.079 0.079,-0.079 h 1.23613 c 0.0423,0 0.0776,0.0356 0.0776,0.079 v 0.5528 c 0,0.0437 -0.0353,0.0794 -0.079,0.0794 h -0.9338 c -0.043,0 -0.0829,0.0272 -0.0984,0.0656 l -0.19967,0.46003 h 0.7493 l 0.61948,1.26294 h 0.68439 l -0.66499,-1.26435 c 0.28611,-0.0462 0.51435,-0.29422 0.51435,-0.59655 v -0.55986 c 0,-0.32914 -0.26317,-0.59619 -0.58949,-0.60501 v -0.001 h -1.39629 v 0.001 c -0.32703,0.009 -0.5902,0.27693 -0.5902,0.60501"
         style="fill:#12100e;fill-opacity:1;fill-rule:evenodd;stroke:none;stroke-width:0.35277778"
         id="path16837"
         inkscape:connector-curvature="0" />
      <path
         d="m 115.99207,183.66434 v 1.8161 c 0,0.32949 0.26247,0.59514 0.58984,0.60466 h 1.72685 v -0.52564 h -1.64747 c -0.0434,0 -0.0776,-0.036 -0.0776,-0.079 v -0.65828 h 1.58044 v -0.52564 h -1.58044 v -0.63218 c 0,-0.0434 0.0339,-0.079 0.0773,-0.079 h 1.64782 v -0.5274 h -1.72685 v 0.001 c -0.32737,0.009 -0.58984,0.27693 -0.58984,0.60501"
         style="fill:#12100e;fill-opacity:1;fill-rule:evenodd;stroke:none;stroke-width:0.35277778"
         id="path16841"
         inkscape:connector-curvature="0" />
      <path
         d="m 109.88778,186.08186 h 1.67146 v -0.52705 h -1.59138 c -0.043,0 -0.0787,-0.0353 -0.0787,-0.0783 v -0.65757 h 1.52471 v -0.52635 h -1.52471 v -0.63112 c 0,-0.043 0.0356,-0.0797 0.0787,-0.0797 h 1.59138 v -0.52705 h -1.67146 v 0.001 c -0.32738,0.009 -0.5902,0.27587 -0.5902,0.60572 v 1.81504 c -3.5e-4,0.32879 0.26282,0.5962 0.5902,0.60502 z m 1.98579,-0.60431 c 0,0.32879 0.26211,0.59584 0.58984,0.60431 h 1.72544 c 0.32737,-0.008 0.58949,-0.27517 0.58949,-0.60431 v -2.42182 h -0.59161 v 2.42182 c 0,0.0427 -0.0346,0.0776 -0.0783,0.0776 h -0.48648 v -2.49943 h -0.59231 v 2.49943 h -0.48754 c -0.0427,0 -0.0773,-0.0349 -0.0773,-0.0776 v -2.42182 h -0.59125 z m -5.20736,-2.19675 v 2.80106 h 0.59161 v -1.85702 l 1.13454,1.75895 c 0.0444,0.0586 0.11465,0.0981 0.19508,0.0981 h 0.17075 c 0.12347,0 0.22472,-0.1016 0.22472,-0.22578 v -2.80141 h -0.59055 v 1.8535 l -1.13454,-1.75437 c -0.0448,-0.0593 -0.11536,-0.0991 -0.19544,-0.0991 h -0.17039 c -0.12523,0 -0.22578,0.10231 -0.22578,0.22613"
         style="fill:#12100e;fill-opacity:1;fill-rule:evenodd;stroke:none;stroke-width:0.35277778"
         id="path16845"
         inkscape:connector-curvature="0" />
      <path
         d="m 101.03176,187.73818 -0.70838,-1.64536 c -0.22189,-0.51681 -0.505528,-0.62335 -1.110189,-0.74365 -0.136173,-0.0268 -0.467784,-0.0945 -0.678039,-0.13653 -0.210609,-0.0423 -0.376061,0.0861 -0.379942,0.26776 -0.0085,-0.0385 -0.104069,-0.36442 -0.104069,-0.36442 l -1.143,-0.2286 0.636058,3.11432 1.289755,-0.16474 -0.58173,-2.01719 c 0,0 0.643467,0.078 0.739775,0.0889 0.34678,0.043 0.47378,0.2212 0.581025,0.51189 0.106539,0.28963 0.464606,1.26294 0.464606,1.26294 l 0.12594,-0.0162 c 0.51259,-0.066 0.71473,-0.0279 0.86819,0.0709 m 0.31679,-1.05551 1.9357,0.0568 c 0,0 -0.0614,-0.0984 -0.0776,-0.12524 -0.0572,-0.0931 -0.16545,-0.17674 -0.34007,-0.19614 -0.14464,-0.0162 -1.74026,-0.19685 -1.74026,-0.19685 z m 0.50448,1.04281 1.8288,-0.33514 -0.19015,-0.31256 -1.88595,0.13829 z m 2.20697,0.27869 -0.20955,-0.34184 -2.53153,0.74084 c 0,0 -0.018,-0.0416 -0.0522,-0.12101 -0.1337,-0.31009 -0.45791,-0.36406 -0.95814,-0.27128 -0.498127,0.0924 -2.663124,0.49001 -2.663124,0.49001 l 0.189442,0.92321 2.704392,-0.78986 c 0.53058,-0.15629 0.80751,-0.16475 0.87101,-0.0187 0.13476,0.31538 0.51576,0.33866 0.94439,0.14675 0.34854,-0.15487 1.70532,-0.75812 1.70532,-0.75812 m -0.58525,-1.41252 c 0.0914,0.14464 0.9659,1.52471 0.9659,1.52471 0,0 -1.89688,1.09361 -2.3495,1.35149 -0.50235,0.28469 -0.92357,0.26811 -1.06362,-0.0921 -0.0871,-0.22472 -0.35031,-0.19332 -0.82938,-0.009 -0.352076,0.13688 -2.593273,1.02059 -2.864207,1.1176 -0.285397,0.1009 -0.560211,-0.0272 -0.599016,-0.3175 -0.03704,-0.28504 -0.730956,-5.42254 -0.730956,-5.42254 -0.04339,-0.30939 0.189795,-0.52353 0.491067,-0.44768 l 3.034947,0.75918 c 0.490005,0.12312 0.827615,0.40499 0.948615,0.6731 0,0 2.05105,0.36724 2.31599,0.41381 0.37324,0.0681 0.54575,0.23565 0.68016,0.44908"
         style="fill:#ffffff;fill-opacity:1;fill-rule:evenodd;stroke:none;stroke-width:0.35277778"
         id="path16849"
         inkscape:connector-curvature="0" />
    </g>
  </g>
</svg>
