<svg role="img" viewBox="0 0 240 24" xmlns="http://www.w3.org/2000/svg"><title>New Era</title><path fill="currentColor" d="M3.84 19.2V4.8h4.8l5.04 8.64V4.8h4.32v14.4h-4.8L8.16 10.8v8.4H3.84zm24.36.24c-3.6 0-6.24-2.4-6.24-5.64V12c0-3.12 2.4-5.4 5.76-5.4 3.6 0 5.52 2.4 5.52 5.64v1.2h-7.2c.24 1.32 1.08 1.92 2.4 1.92.96 0 1.56-.36 2.28-1.08l2.28 1.92c-.96 1.32-2.64 2.16-4.8 2.16zm-2.16-7.08h3.24c-.12-1.2-.6-1.92-1.56-1.92s-1.44.72-1.68 1.92zm11.52 6.84V4.8h4.32v6l3.6-3.96h4.92l-4.32 4.56 4.56 7.8h-4.8l-2.64-4.68-1.32 1.32v3.36h-4.32zm26.28.24c-3.6 0-6.24-2.4-6.24-5.64V12c0-3.12 2.4-5.4 5.76-5.4 3.6 0 5.52 2.4 5.52 5.64v1.2h-7.2c.24 1.32 1.08 1.92 2.4 1.92.96 0 1.56-.36 2.28-1.08l2.28 1.92c-.96 1.32-2.64 2.16-4.8 2.16zm-2.16-7.08h3.24c-.12-1.2-.6-1.92-1.56-1.92s-1.44.72-1.68 1.92zM71.04 19.2V4.8h4.32l3.36 6 3.36-6h4.32v14.4h-4.32V10.92l-3.36 5.88-3.36-5.88V19.2h-4.32zm22.32.24c-3.6 0-6.24-2.4-6.24-5.64V12c0-3.12 2.4-5.4 5.76-5.4 3.6 0 5.52 2.4 5.52 5.64v1.2h-7.2c.24 1.32 1.08 1.92 2.4 1.92.96 0 1.56-.36 2.28-1.08l2.28 1.92c-.96 1.32-2.64 2.16-4.8 2.16zm-2.16-7.08h3.24c-.12-1.2-.6-1.92-1.56-1.92s-1.44.72-1.68 1.92zm16.92 6.84-2.28-6.84-2.28 6.84h-4.32L96.72 6.6h4.32l2.64 7.32L106.32 6.6h4.32l-3.6 12.6h-3.6zm14.04.24c-3.6 0-6.24-2.4-6.24-5.64V12c0-3.12 2.4-5.4 5.76-5.4 3.6 0 5.52 2.4 5.52 5.64v1.2h-7.2c.24 1.32 1.08 1.92 2.4 1.92.96 0 1.56-.36 2.28-1.08l2.28 1.92c-.96 1.32-2.64 2.16-4.8 2.16zm-2.16-7.08h3.24c-.12-1.2-.6-1.92-1.56-1.92s-1.44.72-1.68 1.92zm11.52 6.84V12c0-3 2.4-5.16 5.64-5.16 2.04 0 3.6.72 4.56 1.92l-2.4 2.4c-.48-.6-1.08-.96-1.92-.96-1.32 0-2.16.84-2.16 1.92V12c0 1.08.84 1.92 2.16 1.92.96 0 1.56-.36 2.04-1.08l2.4 2.28c-1.08 1.32-2.64 2.16-4.68 2.16-3.24 0-5.64-2.16-5.64-5.16zm16.8.24c-3.6 0-6.24-2.4-6.24-5.64V12c0-3.12 2.4-5.4 5.76-5.4 3.6 0 5.52 2.4 5.52 5.64v1.2h-7.2c.24 1.32 1.08 1.92 2.4 1.92.96 0 1.56-.36 2.28-1.08l2.28 1.92c-.96 1.32-2.64 2.16-4.8 2.16zm-2.16-7.08h3.24c-.12-1.2-.6-1.92-1.56-1.92s-1.44.72-1.68 1.92zM148.8 19.2l-2.04-3.48L144.72 19.2h-4.8l4.32-5.76-4.2-6.84h4.92l1.92 3.48 1.92-3.48h4.92l-4.2 6.72 4.32 5.88h-5.04zm13.32.24c-1.92 0-3.48-.48-4.68-1.44l1.68-3.12c.96.72 1.92 1.08 2.88 1.08.84 0 1.44-.24 1.8-.72-.36-.6-1.08-.84-2.16-.84h-1.56v-2.88l2.28-2.16h-4.68V5.04h10.32v2.88l-3.12 2.88c1.92.36 3.24 1.56 3.24 3.72 0 2.88-2.4 4.92-6 4.92zm12.18 0c-3.6 0-6-2.04-6-4.92 0-2.16 1.32-3.36 3.24-3.72L168.42 7.92V5.04h10.32v2.88h-4.68l2.28 2.16v2.88h-1.56c-1.08 0-1.8.24-2.16.84.36.48.96.72 1.8.72.96 0 1.92-.36 2.88-1.08l1.68 3.12c-1.2.96-2.76 1.44-4.68 1.44zm10.5-.24V12.6h-1.2v6.6h-4.2V6.6h4.2v3.48h1.2v-3.48h4.2v12.6h-4.2zm15.48 0v-3.6h-2.88l-3.36-10.92h4.44l1.8 7.2 1.8-7.2h4.44l-3.36 10.92h-2.88v3.6zm10.8 0V6.6h4.2v9h5.04v3.6h-9.24zm14.76.24c-3.24 0-5.64-2.16-5.64-5.16V12c0-2.88 2.4-5.16 5.52-5.16 3.6 0 5.4 2.16 5.4 5.4v1.2h-6.96c.24 1.2.96 1.8 2.16 1.8.96 0 1.56-.36 2.28-1.08l2.28 1.92c-.96 1.32-2.52 2.16-5.04 2.16zm-1.68-6.12h3.12c-.12-1.08-.6-1.68-1.56-1.68s-1.44.6-1.56 1.68z"/></svg>