<?xml version="1.0" standalone="no"?>
<!DOCTYPE svg PUBLIC "-//W3C//DTD SVG 20010904//EN"
 "http://www.w3.org/TR/2001/REC-SVG-20010904/DTD/svg10.dtd">
<svg version="1.0" xmlns="http://www.w3.org/2000/svg"
 width="100.000000pt" height="22.000000pt" viewBox="0 0 100.000000 22.000000"
 preserveAspectRatio="xMidYMid meet">

<g transform="translate(0.000000,22.000000) scale(0.100000,-0.100000)"
fill="#000000" stroke="none">
<path d="M10 186 c0 -19 5 -26 19 -26 25 0 45 -59 38 -111 -5 -38 -5 -39 28
-39 30 0 33 3 40 36 3 20 23 60 44 88 57 78 57 76 18 76 -30 0 -38 -6 -57 -37
l-23 -38 -12 35 c-11 32 -16 35 -53 38 -39 3 -42 1 -42 -22z"/>
<path d="M285 198 c-3 -7 -16 -44 -29 -83 -13 -38 -27 -78 -31 -87 -6 -14 -2
-18 17 -18 21 0 27 10 52 87 16 49 31 94 33 101 3 7 -3 12 -16 12 -12 0 -24
-6 -26 -12z"/>
<path d="M405 198 c-67 -39 -67 -146 1 -177 93 -42 184 32 154 124 -18 56
-101 84 -155 53z m84 -52 c17 -20 10 -67 -11 -80 -38 -23 -72 29 -48 73 12 24
42 27 59 7z"/>
<path d="M590 135 c0 -67 3 -79 25 -100 34 -35 106 -35 140 0 22 21 25 33 25
100 l0 75 -30 0 -29 0 -3 -72 c-3 -71 -4 -73 -30 -76 l-28 -3 0 75 0 76 -35 0
-35 0 0 -75z"/>
<path d="M810 185 c0 -21 5 -25 30 -25 l30 0 0 -75 0 -75 30 0 30 0 0 75 0 75
30 0 c25 0 30 4 30 25 0 25 -1 25 -90 25 -89 0 -90 0 -90 -25z"/>
</g>
</svg>
